<svg xmlns="http://www.w3.org/2000/svg" viewBox="76 126 236 236" fill="none" role="img" aria-label="Eduardo Álvarez isotipo">
  <!-- Dark rounded background — viewBox expandido para dar breathing room al diamante -->
  <rect x="80" y="130" width="220" height="220" rx="58" fill="#0a0a0a"/>
  <!-- Diamond (inner + outer) -->
  <path
    class="p p-diamond"
    d="M194.1,188.1l56.1,56.1l-56.1,56.1l-56.1-56.1L194.1,188.1 M194.1,171.1l-73,73l73,73l73-73L194.1,171.1z"
    fill="#06b6d4"
    stroke="#06b6d4"
    stroke-width="1.5"
    stroke-line-cap="round"
    stroke-line-join="round"
    pathLength="100"
  />

  <!-- Vertical arrows (top + bottom) -->
  <g class="p-group p-arrows">
    <polygon
      fill="#06b6d4"
      stroke="#06b6d4"
      stroke-width="1.5"
      stroke-line-cap="round"
      stroke-line-join="round"
      points="225.7,66.6 192.8,34.1 159.9,66.6 170.7,74.6 170.4,176.3 180.8,165.9 180.8,59.3 204.8,59.3 204.8,165.9 215.2,176.3 214.9,74.6"
    />
    <rect fill="#ffffff" stroke="#ffffff" stroke-width="1.5" x="189.2" y="61.8" width="7.5" height="157.6" />
    <circle fill="#ffffff" stroke="#ffffff" stroke-width="1.5" cx="192.9" cy="55.7" r="7.2" />
    <circle fill="#ffffff" stroke="#ffffff" stroke-width="1.5" cx="192.9" cy="225.6" r="7.2" />
    <polygon
      fill="#06b6d4"
      stroke="#06b6d4"
      stroke-width="1.5"
      stroke-line-cap="round"
      stroke-line-join="round"
      points="161.7,422.1 194.5,454.6 227.4,422.1 216.7,414.1 216.9,312.3 206.5,322.7 206.5,429.3 182.6,429.3 182.6,322.7 172.2,312.3 172.4,414.1"
    />
    <rect
      fill="#ffffff"
      stroke="#ffffff"
      stroke-width="1.5"
      x="190.7"
      y="269.3"
      transform="matrix(-1 -1.224647e-16 1.224647e-16 -1 388.8 696.1362)"
      width="7.5"
      height="157.6"
    />
    <circle fill="#ffffff" stroke="#ffffff" stroke-width="1.5" cx="194.4" cy="433" r="7.2" />
    <circle fill="#ffffff" stroke="#ffffff" stroke-width="1.5" cx="194.4" cy="263.1" r="7.2" />
  </g>

  <!-- Corner brackets -->
  <g class="p-group p-brackets">
    <polygon
      fill="#06b6d4"
      stroke="#06b6d4"
      stroke-width="1.5"
      stroke-line-cap="round"
      stroke-line-join="round"
      points="139.8,208.8 150.4,198.6 150.3,169.4 123.3,142.4 115.9,150 139.8,172.3"
    />
    <polygon
      fill="#06b6d4"
      stroke="#06b6d4"
      stroke-width="1.5"
      stroke-line-cap="round"
      stroke-line-join="round"
      points="98.3,244.1 120.5,221.9 136.2,220.4 120.5,204.7 81.1,244.1 120.5,283.5 136.2,267.9 120.5,266.3"
    />
    <polygon
      fill="#06b6d4"
      stroke="#06b6d4"
      stroke-width="1.5"
      stroke-line-cap="round"
      stroke-line-join="round"
      points="247.5,208.8 236.9,198.6 237.1,169.4 264,142.4 271.5,150 247.5,172.3"
    />
    <polygon
      fill="#06b6d4"
      stroke="#06b6d4"
      stroke-width="1.5"
      stroke-line-cap="round"
      stroke-line-join="round"
      points="289,244.1 266.8,221.9 251.1,220.4 266.8,204.7 306.2,244.1 266.8,283.5 251.1,267.9 266.8,266.3"
    />
    <polygon
      fill="#06b6d4"
      stroke="#06b6d4"
      stroke-width="1.5"
      stroke-line-cap="round"
      stroke-line-join="round"
      points="139.8,279.8 150.4,290.1 150.3,319.2 123.3,346.2 115.9,338.7 139.8,316.4"
    />
    <polygon
      fill="#06b6d4"
      stroke="#06b6d4"
      stroke-width="1.5"
      stroke-line-cap="round"
      stroke-line-join="round"
      points="247.5,279.8 236.9,290.1 237.1,319.2 264,346.2 271.5,338.7 247.5,316.4"
    />
  </g>
</svg>
