<?xml version="1.0" encoding="utf-8"?>
<!-- Generator: Adobe Illustrator 22.1.0, SVG Export Plug-In . SVG Version: 6.00 Build 0)  -->
<svg version="1.1" id="Layer_1" xmlns="http://www.w3.org/2000/svg" xmlns:xlink="http://www.w3.org/1999/xlink" x="0px" y="0px"
	 viewBox="0 0 387.3 488.7" style="enable-background:new 0 0 387.3 488.7;" xml:space="preserve">
<style type="text/css">
	.st0{fill:none;stroke:#06B6D4;stroke-linecap:round;stroke-linejoin:round;stroke-miterlimit:10;}
	.st1{fill:none;stroke:#FFFFFF;stroke-linecap:round;stroke-linejoin:round;stroke-miterlimit:10;}
</style>
<polygon class="st0" points="139.8,208.8 150.4,198.6 150.3,169.4 123.3,142.4 115.9,150 139.8,172.3 "/>
<polygon class="st0" points="98.3,244.1 98.3,244.1 98.3,244.1 120.5,221.9 136.2,220.4 120.5,204.7 81.1,244.1 81.1,244.1 
	81.1,244.1 120.5,283.5 136.2,267.9 120.5,266.3 "/>
<circle class="st1" cx="134.2" cy="111.6" r="8.3"/>
<circle class="st1" cx="47.7" cy="198" r="8.3"/>
<rect x="38.4" y="154.2" transform="matrix(0.7071 -0.7071 0.7071 0.7071 -83.4618 111.1727)" class="st1" width="108" height="4.3"/>
<rect x="35.4" y="151.1" transform="matrix(0.7071 -0.7071 0.7071 0.7071 -82.1987 108.1233)" class="st0" width="108" height="4.3"/>
<polygon class="st0" points="247.5,208.8 236.9,198.6 237.1,169.4 264,142.4 271.5,150 247.5,172.3 "/>
<polygon class="st0" points="289,244.1 289,244.1 289,244.1 266.8,221.9 251.1,220.4 266.8,204.7 306.2,244.1 306.2,244.1 
	306.2,244.1 266.8,283.5 251.1,267.9 266.8,266.3 "/>
<circle class="st1" cx="253.1" cy="111.6" r="8.3"/>
<circle class="st1" cx="339.6" cy="198" r="8.3"/>
<rect x="292.7" y="102.3" transform="matrix(0.7071 -0.7071 0.7071 0.7071 -24.18 254.2915)" class="st1" width="4.3" height="108"/>
<rect x="295.8" y="99.3" transform="matrix(0.7071 -0.7071 0.7071 0.7071 -21.1306 255.5546)" class="st0" width="4.3" height="108"/>
<polygon class="st0" points="225.7,66.6 192.8,34.1 159.9,66.6 170.7,74.6 170.4,176.3 180.8,165.9 180.8,59.3 204.8,59.3 
	204.8,165.9 215.2,176.3 214.9,74.6 "/>
<circle class="st1" cx="192.9" cy="55.7" r="7.2"/>
<circle class="st1" cx="192.9" cy="225.6" r="7.2"/>
<rect x="189.2" y="61.8" class="st1" width="7.5" height="157.6"/>
<polygon class="st0" points="247.5,279.8 236.9,290.1 237.1,319.2 264,346.2 271.5,338.7 247.5,316.4 "/>
<circle class="st1" cx="253.1" cy="377.1" r="8.3"/>
<circle class="st1" cx="339.6" cy="290.6" r="8.3"/>
<rect x="240.8" y="330.2" transform="matrix(0.7071 -0.7071 0.7071 0.7071 -148.6304 305.8405)" class="st1" width="108" height="4.3"/>
<rect x="243.9" y="333.2" transform="matrix(0.7071 -0.7071 0.7071 0.7071 -149.8935 308.8899)" class="st0" width="108" height="4.3"/>
<polygon class="st0" points="139.8,279.8 150.4,290.1 150.3,319.2 123.3,346.2 115.9,338.7 139.8,316.4 "/>
<circle class="st1" cx="134.2" cy="377.1" r="8.3"/>
<circle class="st1" cx="47.7" cy="290.6" r="8.3"/>
<rect x="90.3" y="278.3" transform="matrix(0.7071 -0.7071 0.7071 0.7071 -207.9122 162.7217)" class="st1" width="4.3" height="108"/>
<rect x="87.3" y="281.4" transform="matrix(0.7071 -0.7071 0.7071 0.7071 -210.9616 161.4586)" class="st0" width="4.3" height="108"/>
<polygon class="st0" points="161.7,422.1 194.5,454.6 227.4,422.1 216.7,414.1 216.9,312.3 206.5,322.7 206.5,429.3 182.6,429.3 
	182.6,322.7 172.2,312.3 172.4,414.1 "/>
<circle class="st1" cx="194.4" cy="433" r="7.2"/>
<circle class="st1" cx="194.4" cy="263.1" r="7.2"/>
<rect x="190.7" y="269.3" transform="matrix(-1 -1.224647e-16 1.224647e-16 -1 388.8 696.1362)" class="st1" width="7.5" height="157.6"/>
<path class="st0" d="M194.1,188.1l56.1,56.1l-56.1,56.1l-56.1-56.1L194.1,188.1 M194.1,171.1l-73,73l73,73l73-73L194.1,171.1
	L194.1,171.1z"/>
</svg>
