<?xml version="1.0" standalone="no"?>
<!DOCTYPE svg PUBLIC "-//W3C//DTD SVG 20010904//EN"
 "http://www.w3.org/TR/2001/REC-SVG-20010904/DTD/svg10.dtd">
<svg version="1.0" xmlns="http://www.w3.org/2000/svg"
 width="512.000000pt" height="512.000000pt" viewBox="0 0 512.000000 512.000000"
 preserveAspectRatio="xMidYMid meet">
<metadata>
Created by potrace 1.14, written by Peter Selinger 2001-2017
</metadata>
<g transform="translate(0.000000,512.000000) scale(0.100000,-0.100000)"
fill="#000000" stroke="none">
<path d="M199 5105 c-88 -32 -155 -98 -185 -182 -11 -32 -13 -429 -11 -2373
l2 -2335 25 -50 c28 -57 77 -107 135 -139 l40 -21 2337 -3 c2326 -2 2337 -2
2391 18 66 25 128 82 159 146 l23 49 0 2345 0 2345 -22 47 c-27 57 -78 110
-136 140 l-42 23 -2340 2 c-1931 1 -2346 -1 -2376 -12z"/>
</g>
</svg>
